# xmcd
#
# Track frame offsets: 
#        150
#        14980
#        46595
#        65739
#        77514
#        88538
#        100079
#        110693
#        127997
#        145091
#        156626
#        205258
#
# Disc length: 2982 seconds
#
# Revision: 0
# Processed by: cddbd v1.5.2PL0 Copyright (c) Steve Scherf et al.
# Submitted via: ExactAudioCopy v0.99pb4
#
DISCID=a30ba40c
DTITLE=Larry Jon Wilson - Larry Jon Wilson
DYEAR=2008
DGENRE=Country
TTITLE0=Shoulders
TTITLE1=Losers Trilogy
TTITLE2=Heartland
TTITLE3=Long About Now
TTITLE4=Me With No You
TTITLE5=Feel Alright Again
TTITLE6=I Am No Dancer
TTITLE7=Goodbye Eyes
TTITLE8=Rocking With You
TTITLE9=Throw My Hands Up
TTITLE10=Whore Trilogy
TTITLE11=Where From
EXTD=
EXTT0=
EXTT1=
EXTT2=
EXTT3=
EXTT4=
EXTT5=
EXTT6=
EXTT7=
EXTT8=
EXTT9=
EXTT10=
EXTT11=
PLAYORDER=
